<?xml version="1.0" encoding="utf-8"?>
<!-- Generator: Adobe Illustrator 19.0.0, SVG Export Plug-In . SVG Version: 6.00 Build 0)  -->
<svg version="1.1" id="Layer_1" xmlns="http://www.w3.org/2000/svg" xmlns:xlink="http://www.w3.org/1999/xlink" x="0px" y="0px"
	 viewBox="-143 1917 32 32" style="enable-background:new -143 1917 32 32;" xml:space="preserve">
<style type="text/css">
	.st0{fill:#FFFFFF;}
</style>
<path class="st0" d="M-116.3,1924.6c-0.2-0.2-0.5-0.4-0.9-0.4h-16.5l-0.2-1.3c-0.1-0.5-0.6-0.9-1.2-0.9h-2.7c-0.7,0-1.2,0.5-1.2,1.1
	c0,0.6,0.5,1.1,1.2,1.1h1.7l2.2,12.6c0,0,0,0,0,0.1c0,0,0,0.1,0,0.1c0,0,0,0.1,0.1,0.2c0,0,0,0.1,0.1,0.1c0,0,0.1,0.1,0.2,0.1
	c0,0,0,0,0.1,0.1c0.1,0,0.3,0,0.4,0h13.2c0.6,0,1.2-0.5,1.2-1.1c0-0.6-0.5-1.1-1.2-1.1h-12.2l-0.1-1.1h13.5c0.6,0,1.1-0.4,1.2-0.9
	l1.2-7.9C-116,1925.2-116.1,1924.9-116.3,1924.6z M-118.5,1926.5l-0.3,2.3h-4.3v-2.3H-118.5z M-124.3,1926.5v2.3h-3.6v-2.3H-124.3z
	 M-124.3,1929.9v2.3h-3.6v-2.3H-124.3z M-129.1,1926.5v2.3h-3.6c0,0-0.1,0-0.1,0l-0.4-2.3H-129.1z M-132.7,1929.9h3.6v2.3h-3.2
	L-132.7,1929.9z M-123.1,1932.2v-2.3h4.1l-0.3,2.3H-123.1z M-129.1,1940.6c0-0.9-0.8-1.7-1.8-1.7c-0.9,0-1.8,0.8-1.8,1.7
	s0.8,1.7,1.8,1.7C-130,1942.3-129.1,1941.6-129.1,1940.6z M-118.4,1940.6c0-0.9-0.8-1.7-1.8-1.7s-1.8,0.8-1.8,1.7s0.8,1.7,1.8,1.7
	S-118.4,1941.6-118.4,1940.6z"/>
</svg>
