<?xml version="1.0" encoding="utf-8"?>
<!-- Generator: Adobe Illustrator 19.0.0, SVG Export Plug-In . SVG Version: 6.00 Build 0)  -->
<svg version="1.1" id="Layer_1" xmlns="http://www.w3.org/2000/svg" xmlns:xlink="http://www.w3.org/1999/xlink" x="0px" y="0px"
	 viewBox="-143 1917 32 32" style="enable-background:new -143 1917 32 32;" xml:space="preserve">
<style type="text/css">
	.st0{fill:none;stroke:#FFFFFF;stroke-miterlimit:10;}
</style>
<g>
	<path class="st0" d="M-128.5,1928.7c0,1.7-1.4,3-3,3h-4.3c-1.7,0-3-1.3-3-3v-4.3c0-1.7,1.3-3,3-3h4.3c1.6,0,3,1.3,3,3V1928.7z"/>
</g>
<g>
	<path class="st0" d="M-115.2,1928.7c0,1.7-1.4,3-3,3h-4.3c-1.7,0-3-1.3-3-3v-4.3c0-1.7,1.3-3,3-3h4.3c1.6,0,3,1.3,3,3V1928.7z"/>
</g>
<g>
	<path class="st0" d="M-128.5,1941.7c0,1.7-1.4,3-3,3h-4.3c-1.7,0-3-1.3-3-3v-4.3c0-1.7,1.3-3,3-3h4.3c1.6,0,3,1.3,3,3V1941.7z"/>
</g>
<g>
	<path class="st0" d="M-115.2,1941.7c0,1.7-1.4,3-3,3h-4.3c-1.7,0-3-1.3-3-3v-4.3c0-1.7,1.3-3,3-3h4.3c1.6,0,3,1.3,3,3V1941.7z"/>
</g>
</svg>
