<?xml version="1.0" encoding="utf-8"?>
<!-- Generator: Adobe Illustrator 19.0.0, SVG Export Plug-In . SVG Version: 6.00 Build 0)  -->
<svg version="1.1" id="Layer_1" xmlns="http://www.w3.org/2000/svg" xmlns:xlink="http://www.w3.org/1999/xlink" x="0px" y="0px"
	 viewBox="-143 1917 32 32" style="enable-background:new -143 1917 32 32;" xml:space="preserve">
<style type="text/css">
	.st0{fill:#FFFFFF;}
</style>
<path class="st0" d="M-117.4,1940.9l-6.7-6.7c1.4-1.8,2.3-4.1,2.3-6.6c0-5.9-4.8-10.6-10.6-10.6s-10.6,4.8-10.6,10.6
	s4.8,10.6,10.6,10.6c2.5,0,4.8-0.8,6.6-2.3l6.7,6.7c0.3,0.3,0.6,0.4,0.8,0.4c0.3,0,0.6-0.1,0.8-0.4
	C-116.9,1942.2-116.9,1941.4-117.4,1940.9z M-132.4,1935.9c-4.5,0-8.2-3.7-8.2-8.3c0-4.5,3.7-8.2,8.2-8.2c4.6,0,8.3,3.7,8.3,8.2
	C-124.1,1932.2-127.8,1935.9-132.4,1935.9z"/>
</svg>
