<?xml version="1.0" encoding="utf-8"?>
<!-- Generator: Adobe Illustrator 19.0.0, SVG Export Plug-In . SVG Version: 6.00 Build 0)  -->
<svg version="1.1" id="Layer_1" xmlns="http://www.w3.org/2000/svg" xmlns:xlink="http://www.w3.org/1999/xlink" x="0px" y="0px"
	 viewBox="-143 1917 32 32" style="enable-background:new -143 1917 32 32;" xml:space="preserve">
<style type="text/css">
	.st0{fill:#FFFFFF;}
</style>
<path class="st0" d="M-118.1,1935.1c1.6,0,3-1.3,3-3c0-1.6-1.3-3-3-3h-0.5c-0.1-0.3-0.2-0.6-0.4-0.9l0.4-0.3c1.2-1.2,1.2-3.1,0-4.2
	c-1.2-1.2-3-1.2-4.2,0l-0.4,0.4c-0.3-0.1-0.6-0.2-0.8-0.4v-0.5c0-1.7-1.3-3-3-3c-1.7,0-3,1.3-3,2.9v0.5c-0.3,0.1-0.6,0.2-0.9,0.4
	l-0.4-0.4c-1.2-1.2-3-1.2-4.2,0c-1.2,1.2-1.2,3.1,0,4.2l0.4,0.3c-0.1,0.3-0.3,0.6-0.4,0.9h-0.5c-1.6,0-3,1.3-3,3c0,1.6,1.3,3,3,3
	h0.5c0.1,0.3,0.2,0.6,0.4,0.9l-0.4,0.4c-1.2,1.2-1.2,3,0,4.2c1.2,1.2,3.1,1.2,4.2,0l0.3-0.4c0.3,0.1,0.6,0.3,0.9,0.4v0.5
	c0,1.6,1.3,3,3,3s3-1.3,3-3v-0.5c0.3-0.1,0.6-0.2,0.9-0.4l0.3,0.4c1.2,1.2,3.1,1.2,4.2,0c1.2-1.2,1.2-3,0-4.2l-0.4-0.4
	c0.1-0.3,0.2-0.6,0.4-0.8L-118.1,1935.1L-118.1,1935.1z M-120.1,1933.1c-0.2,1.2-0.7,2.3-1.3,3.2l1.4,1.4l0,0c0.4,0.4,0.4,1,0,1.4
	c-0.4,0.4-1,0.4-1.4,0l-0.1,0l-1.4-1.4c-0.9,0.7-2,1.2-3.2,1.3v2c0,0.6-0.5,1-1,1c-0.5,0-1-0.4-1-1v-2c-1.2-0.2-2.2-0.7-3.2-1.3
	l-1.5,1.5c-0.4,0.4-1,0.4-1.4,0c-0.4-0.4-0.4-1,0-1.4l0-0.1l1.4-1.4c-0.7-0.9-1.1-2-1.3-3.2h-2c-0.6,0-1-0.5-1-1c0-0.5,0.4-1,1-1h2
	c0.2-1.2,0.7-2.2,1.3-3.2l-1.5-1.5c-0.4-0.4-0.4-1,0-1.4c0.4-0.4,1-0.4,1.4,0l0.1,0l1.4,1.4c0.9-0.7,2-1.1,3.2-1.3v-2
	c0-0.6,0.5-1,1-1c0.5,0,1,0.4,1,1v2c1.2,0.2,2.2,0.7,3.2,1.3l1.5-1.5c0.4-0.4,1-0.4,1.4,0c0.4,0.4,0.4,1,0,1.4l0,0.1l-1.4,1.4
	c0.7,0.9,1.1,2,1.3,3.2h2c0.6,0,1,0.5,1,1c0,0.5-0.4,1-1,1L-120.1,1933.1L-120.1,1933.1z M-127,1928.1c-2.2,0-3.9,1.8-3.9,3.9
	c0,2.2,1.8,3.9,3.9,3.9c2.2,0,3.9-1.8,3.9-3.9C-123.1,1929.9-124.8,1928.1-127,1928.1z M-127,1934.1c-1.1,0-2-0.9-2-2
	c0-1.1,0.9-2,2-2s2,0.9,2,2C-125,1933.1-125.9,1934.1-127,1934.1z"/>
</svg>
